<svg width="24" height="24" viewBox="0 0 24 24" fill="none" xmlns="http://www.w3.org/2000/svg">
<g clip-path="url(#clip0_6_734)">
<path fill-rule="evenodd" clip-rule="evenodd" d="M21.75 19.5C21.75 19.9142 21.4142 20.25 21 20.25H3C2.58579 20.25 2.25 19.9142 2.25 19.5V4.5C2.25 4.08579 2.58579 3.75 3 3.75C3.41421 3.75 3.75 4.08579 3.75 4.5V13.3472L8.50594 9.1875C8.77266 8.95401 9.16644 8.93915 9.45 9.15187L14.9634 13.2872L20.5059 8.4375C20.704 8.24149 20.9943 8.1714 21.2599 8.2555C21.5256 8.33959 21.7227 8.56402 21.7718 8.83828C21.8209 9.11254 21.714 9.39143 21.4941 9.5625L15.4941 14.8125C15.2273 15.046 14.8336 15.0608 14.55 14.8481L9.03656 10.7147L3.75 15.3403V18.75H21C21.4142 18.75 21.75 19.0858 21.75 19.5Z" fill="white"/>
</g>
<defs>
<clipPath id="clip0_6_734">
<rect width="24" height="24" fill="white"/>
</clipPath>
</defs>
</svg>
