<svg width="24" height="24" viewBox="0 0 24 24" fill="none" xmlns="http://www.w3.org/2000/svg">
<g clip-path="url(#clip0_5_394)">
<path fill-rule="evenodd" clip-rule="evenodd" d="M23.25 19.5C23.25 19.9142 22.9142 20.25 22.5 20.25H1.5C1.08579 20.25 0.75 19.9142 0.75 19.5C0.75 19.0858 1.08579 18.75 1.5 18.75H22.5C22.9142 18.75 23.25 19.0858 23.25 19.5ZM1.52813 9.20438C1.43646 8.88117 1.57091 8.53643 1.85719 8.36063L11.6072 2.36063C11.8481 2.2125 12.1519 2.2125 12.3928 2.36063L22.1428 8.36063C22.4292 8.53622 22.5639 8.8808 22.4725 9.20405C22.3811 9.52729 22.0859 9.75034 21.75 9.75H19.5V15.75H21C21.4142 15.75 21.75 16.0858 21.75 16.5C21.75 16.9142 21.4142 17.25 21 17.25H3C2.58579 17.25 2.25 16.9142 2.25 16.5C2.25 16.0858 2.58579 15.75 3 15.75H4.5V9.75H2.25C1.9144 9.75012 1.61958 9.52727 1.52813 9.20438ZM13.5 15C13.5 15.4142 13.8358 15.75 14.25 15.75C14.6642 15.75 15 15.4142 15 15V10.5C15 10.0858 14.6642 9.75 14.25 9.75C13.8358 9.75 13.5 10.0858 13.5 10.5V15ZM9 15C9 15.4142 9.33579 15.75 9.75 15.75C10.1642 15.75 10.5 15.4142 10.5 15V10.5C10.5 10.0858 10.1642 9.75 9.75 9.75C9.33579 9.75 9 10.0858 9 10.5V15Z" fill="white"/>
</g>
<defs>
<clipPath id="clip0_5_394">
<rect width="24" height="24" fill="white"/>
</clipPath>
</defs>
</svg>
