<svg width="406" height="148" viewBox="0 0 406 148" fill="none" xmlns="http://www.w3.org/2000/svg">
<g clip-path="url(#clip0_5_211)">
<path fill-rule="evenodd" clip-rule="evenodd" d="M2.54812 92.5816C17.9675 92.5816 17.9675 17.8368 33.3869 17.8368C48.8062 17.8368 48.8062 34.8243 64.2256 34.8243C79.645 34.8243 79.645 78.9916 95.0643 78.9916C110.484 78.9916 110.484 28.0293 125.903 28.0293C141.323 28.0293 141.323 85.7866 156.741 85.7866C172.161 85.7866 172.161 51.8117 187.58 51.8117C203 51.8117 203 38.2218 218.42 38.2218C233.839 38.2218 233.839 102.774 249.259 102.774C264.677 102.774 264.677 126.556 280.097 126.556C295.516 126.556 295.516 0.849372 310.936 0.849372C326.355 0.849372 326.355 68.7992 341.775 68.7992C357.193 68.7992 357.193 109.569 372.613 109.569C388.032 109.569 388.032 21.2343 403.452 21.2343V126.556H280.097H2.54812V92.5816Z" fill="url(#paint0_linear_5_211)"/>
<path d="M2.54812 92.5816C17.9675 92.5816 17.9675 17.8368 33.3869 17.8368C48.8062 17.8368 48.8062 34.8243 64.2256 34.8243C79.645 34.8243 79.645 78.9916 95.0643 78.9916C110.484 78.9916 110.484 28.0293 125.903 28.0293C141.323 28.0293 141.323 85.7866 156.741 85.7866C172.161 85.7866 172.161 51.8117 187.58 51.8117C203 51.8117 203 38.2218 218.42 38.2218C233.839 38.2218 233.839 102.774 249.259 102.774C264.677 102.774 264.677 126.556 280.097 126.556C295.516 126.556 295.516 0.849372 310.936 0.849372C326.355 0.849372 326.355 68.7992 341.775 68.7992C357.193 68.7992 357.193 109.569 372.613 109.569C388.032 109.569 388.032 21.2343 403.452 21.2343" stroke="#9EABBA" stroke-width="3"/>
</g>
<defs>
<linearGradient id="paint0_linear_5_211" x1="-203" y1="0" x2="-203" y2="148" gradientUnits="userSpaceOnUse">
<stop stop-color="#293038"/>
<stop offset="0.5" stop-color="#293038" stop-opacity="0"/>
</linearGradient>
<clipPath id="clip0_5_211">
<rect width="406" height="148" fill="white"/>
</clipPath>
</defs>
</svg>
