<svg width="826" height="148" viewBox="0 0 826 148" fill="none" xmlns="http://www.w3.org/2000/svg">
<g clip-path="url(#clip0_5_526)">
<path fill-rule="evenodd" clip-rule="evenodd" d="M5.1841 188.356C36.5545 188.356 36.5545 36.2887 67.925 36.2887C99.2954 36.2887 99.2954 70.8494 130.666 70.8494C162.036 70.8494 162.036 160.707 193.407 160.707C224.777 160.707 224.777 57.0251 256.148 57.0251C287.519 57.0251 287.519 174.531 318.888 174.531C350.259 174.531 350.259 105.41 381.629 105.41C413 105.41 413 77.7615 444.371 77.7615C475.741 77.7615 475.741 209.092 507.112 209.092C538.481 209.092 538.481 257.477 569.852 257.477C601.223 257.477 601.223 1.72803 632.593 1.72803C663.964 1.72803 663.964 139.971 695.335 139.971C726.704 139.971 726.704 222.916 758.074 222.916C789.445 222.916 789.445 43.2008 820.816 43.2008V257.477H569.852H5.1841V188.356Z" fill="url(#paint0_linear_5_526)"/>
<path d="M5.1841 188.356C36.5545 188.356 36.5545 36.2887 67.925 36.2887C99.2954 36.2887 99.2954 70.8494 130.666 70.8494C162.036 70.8494 162.036 160.707 193.407 160.707C224.777 160.707 224.777 57.0251 256.148 57.0251C287.519 57.0251 287.519 174.531 318.888 174.531C350.259 174.531 350.259 105.41 381.629 105.41C413 105.41 413 77.7615 444.371 77.7615C475.741 77.7615 475.741 209.092 507.112 209.092C538.481 209.092 538.481 257.477 569.852 257.477C601.223 257.477 601.223 1.72803 632.593 1.72803C663.964 1.72803 663.964 139.971 695.335 139.971C726.704 139.971 726.704 222.916 758.074 222.916C789.445 222.916 789.445 43.2008 820.816 43.2008" stroke="#9EABBA" stroke-width="3"/>
</g>
<defs>
<linearGradient id="paint0_linear_5_526" x1="-413" y1="0" x2="-413" y2="148" gradientUnits="userSpaceOnUse">
<stop stop-color="#293038"/>
<stop offset="0.5" stop-color="#293038" stop-opacity="0"/>
</linearGradient>
<clipPath id="clip0_5_526">
<rect width="826" height="148" fill="white"/>
</clipPath>
</defs>
</svg>
