<svg width="448" height="56" viewBox="0 0 448 56" fill="none" xmlns="http://www.w3.org/2000/svg">
<path fill-rule="evenodd" clip-rule="evenodd" d="M317.905 298.095C320.534 300.721 322.011 304.284 322.011 308C322.011 311.716 320.534 315.279 317.905 317.905L233.905 401.905C231.279 404.534 227.716 406.011 224 406.011C220.284 406.011 216.721 404.534 214.095 401.905L130.095 317.905C124.625 312.435 124.625 303.565 130.095 298.095C135.565 292.625 144.435 292.625 149.905 298.095L224 372.207L298.095 298.095C300.721 295.466 304.284 293.989 308 293.989C311.716 293.989 315.279 295.466 317.905 298.095ZM149.905 149.905L224 75.7925L298.095 149.905C303.565 155.375 312.435 155.375 317.905 149.905C323.375 144.435 323.375 135.565 317.905 130.095L233.905 46.095C231.279 43.4661 227.716 41.989 224 41.989C220.284 41.989 216.721 43.4661 214.095 46.095L130.095 130.095C124.625 135.565 124.625 144.435 130.095 149.905C135.565 155.375 144.435 155.375 149.905 149.905Z" fill="#9EABBA"/>
</svg>
